<svg xmlns="http://www.w3.org/2000/svg" width="222.193" height="252.9" viewBox="0 0 222.193 252.9">
  <g id="Icon_tiktok" transform="translate(-15.351)">
    <path id="Trazado_3" data-name="Trazado 3" d="M237.428,63.323a63.715,63.715,0,0,1-38.5-12.867,63.873,63.873,0,0,1-24.225-38.5A64.121,64.121,0,0,1,173.47,0H132.177V112.833l-.051,61.8a37.431,37.431,0,1,1-25.675-35.468V97.246a81.25,81.25,0,0,0-11.909-.88,79.181,79.181,0,0,0-59.5,26.611,77.6,77.6,0,0,0,3.5,107,80.358,80.358,0,0,0,7.461,6.516,79.224,79.224,0,0,0,48.537,16.4,81.281,81.281,0,0,0,11.909-.877,78.918,78.918,0,0,0,44.089-22.05,77.3,77.3,0,0,0,23.191-55.017l-.214-92.292a104.239,104.239,0,0,0,23.191,13.525,104.442,104.442,0,0,0,40.832,8.233V63.315c.011.008-.107.008-.115.008Z"/>
  </g>
</svg>
