<svg xmlns="http://www.w3.org/2000/svg" width="291.677" height="277.093" viewBox="0 0 291.677 277.093">
  <path id="Icon_total" d="M351.26-602.907l-68.544-68.544a119.832,119.832,0,0,1-33,18.23,111.682,111.682,0,0,1-38.465,6.563q-32.814,0-59.247-16.042a118.931,118.931,0,0,1-41.746-42.293h35.73a92.9,92.9,0,0,0,28.985,21.329,83.828,83.828,0,0,0,36.277,7.839q36.46,0,61.981-25.522t25.522-61.981q0-36.46-25.522-61.981t-61.981-25.522q-34.272,0-59.247,23.152t-27.892,57.059H94.948q2.917-46.3,36.277-77.841T211.255-880q48.856,0,82.763,33.907t33.907,82.763a111.684,111.684,0,0,1-6.563,38.465,119.832,119.832,0,0,1-18.23,33l68.544,68.544ZM195.577-704.994l-22.97-75.836-18.959,53.96H80v-21.876h58.335L162.4-818.019h21.876l22.24,74.378L222.193-792.5h21.876l21.876,43.752h10.938v21.876H252.454l-17.136-34.272-18.23,56.148Z" transform="translate(-80 880)" fill="#1f1f1f"/>
</svg>
