<svg xmlns="http://www.w3.org/2000/svg" width="252.9" height="177.03" viewBox="0 0 252.9 177.03">
  <g id="Icon_youtube-123" transform="translate(0 -37.935)">
    <path id="Trazado_1" data-name="Trazado 1" d="M247.614,65.58a31.676,31.676,0,0,0-22.359-22.359c-19.721-5.286-98.805-5.286-98.805-5.286s-79.085,0-98.805,5.286A31.676,31.676,0,0,0,5.286,65.58C0,85.3,0,126.45,0,126.45s0,41.15,5.286,60.87a31.676,31.676,0,0,0,22.359,22.359c19.721,5.286,98.805,5.286,98.805,5.286s79.085,0,98.805-5.286a31.676,31.676,0,0,0,22.359-22.359c5.286-19.721,5.286-60.87,5.286-60.87S252.9,85.3,247.614,65.58ZM101.16,164.385V88.515l65.7,37.935Z"/>
  </g>
</svg>
