<svg xmlns="http://www.w3.org/2000/svg" width="323.788" height="264.772" viewBox="0 0 323.788 264.772">
  <path id="Icon_Google_news" data-name="Icon_Google news" d="M257.5,49.167V10.38a8.231,8.231,0,0,0-8.248-8.193H74.52a8.231,8.231,0,0,0-8.305,8.194V48.615l113.2-41.174A8.011,8.011,0,0,1,189.424,12.7l7.35,20.211Zm60.651,22.579L199.383,39.795l10.143,27.872h75.33a8.286,8.286,0,0,1,8.267,8.267V194.588L323.436,81.722a7.992,7.992,0,0,0-5.29-9.977ZM30.627,75.935a8.305,8.305,0,0,1,8.27-8.267H202.874L185.75,20.577a8.028,8.028,0,0,0-10.031-5.163L4.959,77.571A8.011,8.011,0,0,0,.605,88.026l30.021,82.457Zm0,0a8.305,8.305,0,0,1,8.27-8.267H202.874L185.75,20.577a8.028,8.028,0,0,0-10.031-5.163L4.959,77.571A8.011,8.011,0,0,0,.605,88.026l30.021,82.457ZM286.912,258.69a8.286,8.286,0,0,1-8.269,8.269H45.123a8.286,8.286,0,0,1-8.269-8.269V82.165A8.286,8.286,0,0,1,45.123,73.9h233.52a8.286,8.286,0,0,1,8.269,8.269Zm-40.9-46.134V196.424a1.085,1.085,0,0,0-1.085-1.083H172.448v18.373H244.93a1.1,1.1,0,0,0,1.085-1.158Zm11.022-34.909V161.442a1.085,1.085,0,0,0-1.083-1.1H172.448v18.373h83.505a1.066,1.066,0,0,0,1.085-1.1Zm-11.022-34.908V126.46a1.085,1.085,0,0,0-1.085-1.083H172.448V143.75H244.93a1.1,1.1,0,0,0,1.085-1.066Zm-136.07,19.42v16.535h23.884c-1.966,10.1-10.859,17.437-23.884,17.437a26.658,26.658,0,0,1,0-53.283,23.884,23.884,0,0,1,16.9,6.615l12.6-12.586a42.368,42.368,0,0,0-29.506-11.5,44.1,44.1,0,0,0,0,88.191c25.483,0,42.258-17.915,42.258-43.14a53.393,53.393,0,0,0-.7-8.341Z" transform="translate(0 -2.187)"/>
</svg>
