<svg xmlns="http://www.w3.org/2000/svg" width="68.614" height="75.237" viewBox="0 0 68.614 75.237">
  <g id="Logo_CNP" transform="translate(-462.432 557)">
    <path id="COOL_relleno" data-name="COOL relleno" d="M42.979,69.265c-3.9,0-5.023-1.756-5.023-4.681V55.239C38.614,48.619,34.9,43,32.088,37.375a7.4,7.4,0,0,1-.6-5.824C34,25.227,38.514,19.5,37.956,12.327V4.779C37.956,1.756,39.273,0,42.883,0h4.974c3.608,0,4.925,1.756,4.925,4.731v9.337c.489,6.34-3.326,11.561-5.835,16.982a7.337,7.337,0,0,0,.1,6.626c3.011,6.124,6.124,12.349,5.735,19.268v7.541c0,3.023-1.073,4.779-4.876,4.779Zm.146-64.094v7.436a26.2,26.2,0,0,1-1.4,8.3c-1.707,5.12-6.927,9.739-4.819,15.26,2.509,6.125,6.727,11.747,6.218,18.718V64.1c0,.195.049.244.244.244h4c.195,0,.244-.049.244-.244V54.888a29.721,29.721,0,0,0-1.269-8.076c-1.707-5.622-7.53-10.742-4.417-16.866,2.81-5.522,6.023-11.044,5.686-17.34V5.171c0-.2-.049-.244-.244-.244h-4C43.174,4.927,43.125,4.976,43.125,5.171ZM24.658,69.265c-3.9,0-5.023-1.756-5.023-4.681V55.239a23.906,23.906,0,0,0-1.483-8.828c-1.807-5.12-7.128-9.739-4.617-15.361,2.71-6.023,6.525-11.847,6.1-18.723V4.779C19.634,1.756,20.951,0,24.56,0h4.975c3.608,0,4.925,1.756,4.925,4.731v7.541A23.911,23.911,0,0,1,31.3,24.926C29.5,28.24,26.785,31.653,27.99,35.568c2.108,6.626,7.228,12.248,6.47,19.58v9.337c0,3.023-1.073,4.779-4.877,4.779ZM24.8,5.171v7.436c.476,6.8-3.44,12.521-6.15,18.443a6.713,6.713,0,0,0,0,5.724c2.61,5.823,6.625,11.344,6.15,18.114V64.1c0,.195.049.244.244.244h4c.195,0,.244-.049.244-.244V54.888C29.7,48.017,25.58,42.4,22.97,36.371a6.566,6.566,0,0,1,.2-5.321c2.611-5.923,6.626-11.647,6.12-18.443V5.171c0-.2-.049-.244-.244-.244h-4C24.853,4.927,24.8,4.976,24.8,5.171ZM59.623,62.22c-2.946,0-4.318-1.29-4.318-4.059V51.04l0-.025c.407-4.093-1.513-7.749-3.368-11.283-.347-.659-.7-1.339-1.038-2.009a6.089,6.089,0,0,1-.48-4.82l0-.011c.551-1.388,1.233-2.75,1.891-4.067,1.687-3.368,3.28-6.55,2.988-10.31V12.742c0-2.741,1.427-4.132,4.244-4.132h.7v4.4l-.011.038v5.637a20.3,20.3,0,0,1-1.089,6.465,21.558,21.558,0,0,1-1.877,3.815c-1.431,2.485-2.782,4.832-1.792,7.432.5,1.219,1.1,2.44,1.688,3.62,1.422,2.874,2.893,5.846,3.082,9.177V50.66c0,.051-.006.1-.01.156v6.963l.011.039v.041h7.334l-.016.518c-.081,2.621-1.415,3.843-4.2,3.843Zm-50.1-.059c-2.952,0-4.327-1.292-4.327-4.066V50.957l0-.024c.407-4.1-1.516-7.768-3.377-11.312-.347-.658-.7-1.34-1.04-2.011A6.1,6.1,0,0,1,.3,32.778l0-.011c.552-1.391,1.235-2.756,1.9-4.076,1.691-3.376,3.287-6.565,3-10.334l0-.02V12.573c0-2.747,1.431-4.14,4.253-4.14h3.786c2.821,0,4.252,1.381,4.252,4.1v6.209h-4.94V13.187H10.136v5.345a20.376,20.376,0,0,1-1.091,6.479,21.55,21.55,0,0,1-1.88,3.821c-1.434,2.492-2.789,4.844-1.8,7.45.5,1.223,1.106,2.446,1.692,3.63,1.653,3.341,3.363,6.8,3.076,10.821v6.674h2.413V50.22h4.939v7.8c0,2.863-1.3,4.14-4.215,4.14Z" transform="translate(462.949 -551.527)" fill="#010101" stroke="rgba(0,0,0,0)" stroke-miterlimit="10" stroke-width="1"/>
    <g id="Star" transform="translate(507.387 -557)">
      <path id="Trazado_49" data-name="Trazado 49" d="M384.588,5.152a47.488,47.488,0,0,0,1.4,5.537A32.136,32.136,0,0,0,391,12.238l-5.009,1.652a40.993,40.993,0,0,0-1.4,6.6l-1.456-6.681L378.3,12.335a24.723,24.723,0,0,0,2.888-.913,15.511,15.511,0,0,0,1.964-.759Z" transform="translate(-377.798 -4.484)" fill="#f95c4b"/>
      <path id="Trazado_50" data-name="Trazado 50" d="M381.229,16.837l-1.615-7.41-5.222-1.594.479-.107a22.141,22.141,0,0,0,2.6-.811l.273-.1c.149-.053.3-.1.449-.156a11.365,11.365,0,0,0,1.447-.57L381.222,0l.089.65a26.922,26.922,0,0,0,.929,3.864c.153.522.311,1.062.452,1.593l.177.065a30.467,30.467,0,0,0,4.746,1.455l.493.093L382.69,9.508a40.693,40.693,0,0,0-1.38,6.512Zm-5.84-8.971,4.447,1.358,1.307,6a46.578,46.578,0,0,1,1.315-5.85l.018-.067,4.614-1.521a34.039,34.039,0,0,1-4.309-1.368l-.3-.112-.017-.065c-.144-.548-.309-1.109-.468-1.651a32.274,32.274,0,0,1-.839-3.287l-1.29,4.967-.051.027a11.124,11.124,0,0,1-1.534.612c-.15.051-.3.1-.446.155l-.273.1c-.7.252-1.426.511-2.169.707" transform="translate(-374.392 -0.001)" fill="#f95c4b"/>
    </g>
  </g>
</svg>
